<svg width="31" height="31" viewBox="0 0 31 31" fill="none" xmlns="http://www.w3.org/2000/svg">
<path d="M6.65131 22.5715C5.86314 22.5715 5.09267 22.8053 4.43733 23.2432C3.78199 23.6811 3.27122 24.3035 2.9696 25.0316C2.66798 25.7598 2.58906 26.5611 2.74283 27.3342C2.89659 28.1072 3.27613 28.8173 3.83345 29.3746C4.39077 29.9319 5.10084 30.3115 5.87386 30.4653C6.64689 30.619 7.44815 30.5401 8.17632 30.2385C8.90449 29.9369 9.52687 29.4261 9.96476 28.7707C10.4026 28.1154 10.6364 27.3449 10.6364 26.5567C10.6364 25.4998 10.2165 24.4861 9.46916 23.7388C8.72182 22.9914 7.70821 22.5715 6.65131 22.5715ZM6.65131 28.5493C6.25722 28.5493 5.87199 28.4324 5.54432 28.2135C5.21665 27.9945 4.96126 27.6833 4.81045 27.3192C4.65964 26.9551 4.62018 26.5545 4.69707 26.168C4.77395 25.7814 4.96372 25.4264 5.24238 25.1477C5.52104 24.8691 5.87607 24.6793 6.26258 24.6024C6.6491 24.5255 7.04973 24.565 7.41381 24.7158C7.7779 24.8666 8.08909 25.122 8.30803 25.4497C8.52697 25.7774 8.64383 26.1626 8.64383 26.5567C8.64383 27.0852 8.43391 27.592 8.06023 27.9657C7.68656 28.3393 7.17976 28.5493 6.65131 28.5493ZM20.599 22.5715C19.8108 22.5715 19.0403 22.8053 18.385 23.2432C17.7297 23.6811 17.2189 24.3035 16.9173 25.0316C16.6157 25.7598 16.5367 26.5611 16.6905 27.3342C16.8443 28.1072 17.2238 28.8173 17.7811 29.3746C18.3384 29.9319 19.0485 30.3115 19.8215 30.4653C20.5946 30.619 21.3958 30.5401 22.124 30.2385C22.8522 29.9369 23.4746 29.4261 23.9124 28.7707C24.3503 28.1154 24.584 27.3449 24.584 26.5567C24.584 25.4998 24.1642 24.4861 23.4168 23.7388C22.6695 22.9914 21.6559 22.5715 20.599 22.5715ZM20.599 28.5493C20.2049 28.5493 19.8197 28.4324 19.492 28.2135C19.1643 27.9945 18.9089 27.6833 18.7581 27.3192C18.6073 26.9551 18.5679 26.5545 18.6447 26.168C18.7216 25.7814 18.9114 25.4264 19.1901 25.1477C19.4687 24.8691 19.8238 24.6793 20.2103 24.6024C20.5968 24.5255 20.9974 24.565 21.3615 24.7158C21.7256 24.8666 22.0368 25.122 22.2557 25.4497C22.4747 25.7774 22.5915 26.1626 22.5915 26.5567C22.5915 27.0852 22.3816 27.592 22.0079 27.9657C21.6342 28.3393 21.1274 28.5493 20.599 28.5493ZM29.5653 0.653255H26.5766C26.349 0.646624 26.126 0.718146 25.9447 0.855913C25.7635 0.99368 25.6348 1.18938 25.5803 1.41043L24.8032 4.6384H1.66999C1.52686 4.63715 1.38514 4.66677 1.25448 4.72522C1.12383 4.78367 1.0073 4.8696 0.912833 4.97714C0.819639 5.08574 0.750933 5.21314 0.711393 5.35067C0.671852 5.48821 0.662405 5.63265 0.683693 5.77417L2.67622 19.7222C2.70982 19.9598 2.82811 20.1774 3.00932 20.3348C3.19053 20.4922 3.42248 20.5789 3.66252 20.579H23.5878C23.8295 20.5814 24.0639 20.4957 24.2472 20.3381C24.4305 20.1805 24.5502 19.9616 24.584 19.7222L26.5766 5.82398L27.3536 2.64583H29.5653C29.8296 2.64583 30.083 2.54086 30.2698 2.35402C30.4566 2.16718 30.5616 1.91377 30.5616 1.64954C30.5616 1.38531 30.4566 1.1319 30.2698 0.94506C30.083 0.75822 29.8296 0.653255 29.5653 0.653255ZM22.721 18.5864H4.52927L2.8157 6.63097H24.4346L22.721 18.5864Z" fill="#00C5F6"/>
</svg>
