<svg width="24" height="25" viewBox="0 0 24 25" fill="none" xmlns="http://www.w3.org/2000/svg">
<path d="M16.8218 6.57651C16.8218 3.90501 14.6561 1.7393 11.9846 1.7393C10.6982 1.73389 9.46256 2.24111 8.55098 3.14885C7.6394 4.05658 7.12697 5.29005 7.12697 6.57651M16.6681 23.2606H7.32169C3.88853 23.2606 1.25474 22.0206 2.00286 17.0297L2.87396 10.2659C3.33513 7.77555 4.9236 6.82246 6.31736 6.82246H17.7134C19.1276 6.82246 20.6239 7.84729 21.1568 10.2659L22.0279 17.0297C22.6633 21.4569 20.1012 23.2606 16.6681 23.2606Z" stroke="white" stroke-width="2" stroke-linecap="round" stroke-linejoin="round"/>
<path d="M15.3043 11.6189H15.254" stroke="white" stroke-width="2" stroke-linecap="round" stroke-linejoin="round"/>
<path d="M8.77721 11.6189H8.72571" stroke="white" stroke-width="2" stroke-linecap="round" stroke-linejoin="round"/>
</svg>
